{"title":"Sherlock S03E01 The Empty Hearse HDTV 480p x264 AAC E-Subs [GWC]","uid":9423978,"size":259975555,"categoryP":"video","categoryS":"tv_shows","magnet":"?xt=urn:btih:ae4d3c7af2ac686082168cfe2e1167aeb97a6ee4&amp;dn=Sherlock+S03E01+The+Empty+Hearse+HDTV+480p+x264+AAC+E-Subs+%5BGWC%5D&amp;tr=udp%3A%2F%2Ftracker.openbittorrent.com%3A80&amp;tr=udp%3A%2F%2Fopen.demonii.com%3A1337&amp;tr=udp%3A%2F%2Ftracker.coppersurfer.tk%3A6969&amp;tr=udp%3A%2F%2Fexodus.desync.com%3A6969","seeders":3,"leechers":0,"uploader":"canc232","files":1,"time":1388649672,"description":"Sherlock S03E01 The Empty Hearse HDTV 480p X264 AAC E-Subs [GWC] \n\n\n\nSCREENS :\n &lt;a href=&quot;\nhttp://s20.postimg.org/q559kdmyl/Sherlock_S03_E01_The_Empty_Hearse_10_00_35.jpg&quot; rel=&quot;nofollow&quot; target=&quot;_NEW&quot;&gt;\nhttp://s20.postimg.org/q559kdmyl/Sherlock_S03_E01_The_Empty_Hearse_10_00_35.jpg&lt;/a&gt; &lt;a href=&quot;\nhttp://s20.postimg.org/7zsb6bngd/Sherlock_S03_E01_The_Empty_Hearse_10_00_52.jpg&quot; rel=&quot;nofollow&quot; target=&quot;_NEW&quot;&gt;\nhttp://s20.postimg.org/7zsb6bngd/Sherlock_S03_E01_The_Empty_Hearse_10_00_52.jpg&lt;/a&gt; &lt;a href=&quot;\nhttp://s20.postimg.org/zbnk7ns71/Sherlock_S03_E01_The_Empty_Hearse_10_02_11.jpg&quot; rel=&quot;nofollow&quot; target=&quot;_NEW&quot;&gt;\nhttp://s20.postimg.org/zbnk7ns71/Sherlock_S03_E01_The_Empty_Hearse_10_02_11.jpg&lt;/a&gt;\n\n\n\nMEDIA INFO :\n\nGeneral \nFormat : MPEG-4 \nFormat profile : Base Media\nFile size : 248 MiB \nDuration : 1h 26mn \nOverall bit rate mode : Variable \nOverall bit rate : 402 Kbps \n\nVideo \nFormat : AVC \nFormat profile : &lt;a class=&quot;__cf_email__&quot; href=&quot;/cdn-cgi/l/email-protection&quot; data-cfemail=&quot;85cdece2edc5c9b6abb5&quot;&gt;[email&amp;#160;protected]&lt;/a&gt;&lt;script cf-hash='f9e31' type=&quot;text/javascript&quot;&gt;\n/* &lt;![CDATA[ */!function(){try{var t=&quot;currentScript&quot;in document?document.currentScript:function(){for(var t=document.getElementsByTagName(&quot;script&quot;),e=t.length;e--;)if(t[e].getAttribute(&quot;cf-hash&quot;))return t[e]}();if(t&amp;&amp;t.previousSibling){var e,r,n,i,c=t.previousSibling,a=c.getAttribute(&quot;data-cfemail&quot;);if(a){for(e=&quot;&quot;,r=parseInt(a.substr(0,2),16),n=2;a.length-n;n+=2)i=parseInt(a.substr(n,2),16)^r,e+=String.fromCharCode(i);e=document.createTextNode(e),c.parentNode.replaceChild(e,c)}}}catch(u){}}();/* ]]&gt; */&lt;/script&gt; \nFormat settings, CABAC : Yes \nFormat settings, ReFrames : 4 frames \nDuration : 1h 26mn \nBit rate : 339 Kbps \nWidth : 720 pixels \nHeight : 404 pixels \nDisplay aspect ratio : 16:9 \nFrame rate : 25.000 fps \nStream size : 209 MiB (84%) \nTitle : Sherlock S03E01 The Empty Hearse HDTV 480p X264 AAC E-Subs [GWC] \nWriting library : x264 core\nLanguage : English \nTagged date : UTC 2014-01-02 04:33:15 \n\nAudio \nFormat : AAC \nFormat profile : HE-AAC / LC \nDuration : 1h 26mn \nBit rate mode : Variable \nChannel(s) : 2 channels \nSampling rate : 48.0 KHz / 24.0 KHz \nStream size : 37.0 MiB\nLanguage : English \n\nText \nFormat : Timed Text \nDuration : 1h 25mn \nBit rate mode : Variable \nStream size : 42.3 KiB (0%) \nLanguage : English\n","torrent":{"xt":"urn:btih:ae4d3c7af2ac686082168cfe2e1167aeb97a6ee4","amp;dn":"Sherlock+S03E01+The+Empty+Hearse+HDTV+480p+x264+AAC+E-Subs+%5BGWC%5D","amp;tr":["udp%3A%2F%2Ftracker.openbittorrent.com%3A80","udp%3A%2F%2Fopen.demonii.com%3A1337","udp%3A%2F%2Ftracker.coppersurfer.tk%3A6969","udp%3A%2F%2Fexodus.desync.com%3A6969"],"infoHash":"ae4d3c7af2ac686082168cfe2e1167aeb97a6ee4","infoHashBuffer":{"type":"Buffer","data":[174,77,60,122,242,172,104,96,130,22,140,254,46,17,103,174,185,122,110,228]},"announce":[],"urlList":[]}}